<?xml version="1.0" standalone="no"?>
<!DOCTYPE svg PUBLIC "-//W3C//DTD SVG 20010904//EN"
 "http://www.w3.org/TR/2001/REC-SVG-20010904/DTD/svg10.dtd">
<svg version="1.0" xmlns="http://www.w3.org/2000/svg"
 width="512.000000pt" height="512.000000pt" viewBox="0 0 512.000000 512.000000"
 preserveAspectRatio="xMidYMid meet">
<metadata>
Created by potrace 1.14, written by Peter Selinger 2001-2017
</metadata>
<g transform="translate(0.000000,512.000000) scale(0.100000,-0.100000)"
fill="#000000" stroke="none">
<path d="M1895 5102 c-124 -43 -206 -141 -223 -271 -43 -315 339 -502 565
-276 85 86 116 234 73 347 -27 74 -96 150 -166 184 -71 35 -175 41 -249 16z"/>
<path d="M3288 4561 c-20 -10 -78 -62 -129 -115 -50 -53 -98 -96 -105 -96 -8
0 -76 42 -152 94 -76 51 -152 97 -168 100 -17 4 -48 1 -69 -6 -44 -14 -69 -45
-207 -249 -42 -63 -202 -297 -355 -521 -276 -405 -278 -408 -308 -401 -68 14
-194 8 -260 -11 -145 -43 -259 -141 -341 -291 -24 -44 -47 -144 -49 -215 l-2
-75 -319 -5 -319 -5 -54 -30 c-63 -35 -111 -91 -137 -160 -18 -48 -19 -101
-19 -1200 l0 -1150 28 -57 c30 -61 74 -105 140 -140 l42 -23 1870 0 1870 0 54
30 c58 32 111 90 138 151 15 34 18 83 20 414 1 206 2 382 3 390 0 11 14 15 54
17 66 2 110 23 133 66 16 29 18 64 18 327 l0 295 -24 32 c-29 38 -64 54 -125
57 -25 1 -48 5 -52 8 -3 4 -7 173 -8 375 -1 324 -4 374 -19 416 l-18 48 195
194 c206 206 224 232 211 303 -6 32 -91 122 -698 730 -381 380 -706 699 -723
707 -42 20 -72 19 -116 -4z"/>
<path d="M865 4533 c-114 -28 -199 -74 -276 -152 -115 -115 -165 -246 -156
-411 24 -483 606 -691 939 -335 26 27 64 82 83 120 182 360 -75 781 -477 783
-51 0 -102 -2 -113 -5z"/>
</g>
</svg>
